<svg width="397" height="202" viewBox="0 0 397 202" fill="none" xmlns="http://www.w3.org/2000/svg">
<path d="M391.402 201.089H5.59768C2.48786 201.089 0 198.596 0 195.479C0 192.363 2.48786 189.87 5.59768 189.87H391.402C394.512 189.87 397 192.363 397 195.479C397 198.596 394.512 201.089 391.402 201.089Z" fill="#C9C9C9"/>
<path d="M78.0654 143.203C72.1012 143.203 67.3174 138.353 67.3174 132.446C67.3174 126.539 72.1633 121.689 78.0654 121.689H138.95V143.265H78.0654V143.203Z" fill="#CECECE"/>
<path d="M142.402 146.717H78.274C70.2966 146.717 63.8652 140.106 63.8652 132.046C63.8652 123.923 70.3584 117.374 78.274 117.374H142.402V146.717Z" fill="white"/>
<path fill-rule="evenodd" clip-rule="evenodd" d="M73.3586 129.025C73.3586 128.31 73.9147 127.73 74.6007 127.73H139.434C140.12 127.73 140.676 128.31 140.676 129.025C140.676 129.74 140.12 130.319 139.434 130.319H74.6007C73.9147 130.319 73.3586 129.74 73.3586 129.025Z" fill="#1F3969"/>
<path fill-rule="evenodd" clip-rule="evenodd" d="M73.3586 135.066C73.3586 134.351 73.9147 133.772 74.6007 133.772H139.434C140.12 133.772 140.676 134.351 140.676 135.066C140.676 135.781 140.12 136.361 139.434 136.361H74.6007C73.9147 136.361 73.3586 135.781 73.3586 135.066Z" fill="#1F3969"/>
<path fill-rule="evenodd" clip-rule="evenodd" d="M78.4617 122.461C73.2385 122.461 68.9429 126.772 68.9429 132.014C68.9429 137.261 73.181 141.568 78.4617 141.568C78.5978 141.568 78.7288 141.59 78.8514 141.631H138.188V122.461H78.4617ZM78.0518 144.059C78.1802 144.104 78.3181 144.128 78.4617 144.128H139.432C140.119 144.128 140.676 143.569 140.676 142.879V121.212C140.676 120.522 140.119 119.963 139.432 119.963H78.4617C71.8641 119.963 66.4543 125.393 66.4543 132.014C66.4543 138.495 71.5795 143.842 78.0518 144.059Z" fill="#1F3969"/>
<path d="M78.274 142.939C72.3373 142.939 67.5756 138.028 67.5756 132.046C67.5756 126.064 72.3992 121.152 78.274 121.152H139.929L142.402 117.374H78.274C70.2966 117.374 63.8652 123.986 63.8652 132.046C63.8652 140.169 70.3584 146.717 78.274 146.717H142.402L139.929 142.939H78.274Z" fill="#FF3E3E"/>
<path fill-rule="evenodd" clip-rule="evenodd" d="M62.1392 132.046C62.1392 123.511 69.2051 116.511 77.9737 116.511H142.877C143.338 116.511 143.762 116.76 143.98 117.159C144.198 117.559 144.174 118.043 143.918 118.42L141.415 122.104C141.182 122.446 140.792 122.651 140.373 122.651H77.9737C72.7192 122.651 68.3979 126.891 68.3979 132.046C68.3979 137.205 72.6614 141.44 77.9737 141.44H140.373C140.792 141.44 141.182 141.645 141.415 141.987L143.918 145.671C144.174 146.048 144.198 146.532 143.98 146.932C143.762 147.331 143.338 147.58 142.877 147.58H77.9737C69.2747 147.58 62.1392 140.648 62.1392 132.046ZM77.9737 118.967C70.5948 118.967 64.6426 124.861 64.6426 132.046C64.6426 139.285 70.6504 145.124 77.9737 145.124H140.538L139.703 143.896H77.9737C71.2693 143.896 65.8944 138.552 65.8944 132.046C65.8944 125.534 71.3366 120.195 77.9737 120.195H139.703L140.538 118.967H77.9737Z" fill="#1F3969"/>
<path opacity="0.28" d="M128.593 117.374H117.374V146.717H128.593V117.374Z" fill="#1F3969"/>
<path opacity="0.28" fill-rule="evenodd" clip-rule="evenodd" d="M116.511 117.736C116.511 117.06 117.063 116.511 117.744 116.511H129.087C129.768 116.511 130.32 117.06 130.32 117.736V146.355C130.32 147.032 129.768 147.58 129.087 147.58H117.744C117.063 147.58 116.511 147.032 116.511 146.355V117.736ZM118.977 118.962V145.129H127.854V118.962H118.977Z" fill="#1F3969"/>
<path d="M136.437 170.883H18.0481C15.7415 170.883 13.8088 169.005 13.8088 166.626V150.975C13.8088 148.658 15.6791 146.717 18.0481 146.717H136.437C138.744 146.717 140.676 148.596 140.676 150.975V166.626C140.676 169.005 138.806 170.883 136.437 170.883Z" fill="#D88B33"/>
<path fill-rule="evenodd" clip-rule="evenodd" d="M17.573 147.503C15.9032 147.503 14.5783 148.876 14.5783 150.518V166.219C14.5783 167.9 15.9417 169.234 17.573 169.234H136.049C137.731 169.234 139.044 167.912 139.044 166.219V150.518C139.044 148.837 137.68 147.503 136.049 147.503H17.573ZM12.0828 150.518C12.0828 147.513 14.5012 144.991 17.573 144.991H136.049C139.035 144.991 141.539 147.426 141.539 150.518V166.219C141.539 169.299 139.109 171.746 136.049 171.746H17.573C14.5874 171.746 12.0828 169.311 12.0828 166.219V150.518Z" fill="#1F3969"/>
<path opacity="0.28" d="M136.37 146.717H117.374V155.993C117.374 161.806 122.186 166.567 128.202 166.567H140.676C140.676 166.505 140.676 166.444 140.676 166.382V150.922C140.676 148.572 138.777 146.717 136.37 146.717Z" fill="#1F3969"/>
<path opacity="0.28" fill-rule="evenodd" clip-rule="evenodd" d="M116.511 147.098C116.511 146.411 117.06 145.854 117.738 145.854H136.141C139.15 145.854 141.539 148.276 141.539 151.324V167.05C141.539 167.737 140.99 168.294 140.312 168.294H128.228C121.718 168.294 116.511 162.946 116.511 156.421V147.098ZM118.965 148.341V156.421C118.965 161.582 123.082 165.807 128.228 165.807H139.085V151.324C139.085 149.649 137.794 148.341 136.141 148.341H118.965Z" fill="#1F3969"/>
<path d="M169.157 175.198H32.7959C33.6017 177.257 34.0355 179.831 34.0355 182.534C34.0355 185.236 33.6017 187.746 32.7959 189.87H169.095C168.289 187.81 167.855 185.236 167.855 182.534C167.917 179.767 168.351 177.257 169.157 175.198Z" fill="#CECECE"/>
<path d="M173.472 171.746H28.4805V175.198H173.472V171.746Z" fill="#5F5AFF"/>
<path fill-rule="evenodd" clip-rule="evenodd" d="M27.6177 172.091C27.6177 171.424 28.1746 170.883 28.8616 170.883H173.091C173.778 170.883 174.335 171.424 174.335 172.091V175.716C174.335 176.383 173.778 176.924 173.091 176.924H28.8616C28.1746 176.924 27.6177 176.383 27.6177 175.716V172.091ZM30.1055 173.299V174.507H171.847V173.299H30.1055Z" fill="#1F3969"/>
<path d="M173.472 189.87H28.4805V193.322H173.472V189.87Z" fill="#F6F9FD"/>
<path d="M173.472 189.87H28.4805V193.322H173.472V189.87Z" fill="#5F5AFF"/>
<path fill-rule="evenodd" clip-rule="evenodd" d="M27.6177 189.352C27.6177 188.684 28.1746 188.143 28.8616 188.143H173.091C173.778 188.143 174.335 188.684 174.335 189.352V192.976C174.335 193.644 173.778 194.185 173.091 194.185H28.8616C28.1746 194.185 27.6177 193.644 27.6177 192.976V189.352ZM30.1055 190.56V191.768H171.847V190.56H30.1055Z" fill="#1F3969"/>
<path d="M244.962 179.914L243.108 158.8H212.579L210.725 179.914C210.293 184.801 207.388 189.5 202.815 193.259V193.322H252.872V193.259C248.299 189.5 245.394 184.801 244.962 179.914Z" fill="#BFCFE2"/>
<path opacity="0.28" d="M212.56 158.8L211.446 171.746H244.241L243.128 158.8H212.56Z" fill="#1F3969"/>
<path opacity="0.28" fill-rule="evenodd" clip-rule="evenodd" d="M210.842 159.042C210.899 158.416 211.436 157.937 212.079 157.937H242.745C243.388 157.937 243.925 158.416 243.982 159.042L245.1 171.289C245.131 171.628 245.014 171.964 244.779 172.215C244.544 172.466 244.211 172.609 243.863 172.609H210.961C210.613 172.609 210.28 172.466 210.045 172.215C209.81 171.964 209.694 171.628 209.725 171.289L210.842 159.042ZM213.215 160.362L212.318 170.184H242.506L241.61 160.362H213.215Z" fill="#1F3969"/>
<path fill-rule="evenodd" clip-rule="evenodd" d="M210.88 159.082C210.937 158.434 211.472 157.937 212.114 157.937H242.71C243.352 157.937 243.887 158.434 243.944 159.082L245.802 180.242C246.197 184.706 248.869 189.131 253.276 192.754C253.567 192.992 253.735 193.351 253.735 193.729V193.792C253.735 194.486 253.18 195.048 252.496 195.048H202.328C201.644 195.048 201.089 194.486 201.089 193.792V193.729C201.089 193.351 201.258 192.992 201.548 192.754C205.955 189.131 208.627 184.706 209.022 180.242L210.88 159.082ZM213.247 160.449L211.49 180.466C211.101 184.857 208.896 189.019 205.472 192.536H249.352C245.928 189.019 243.723 184.857 243.335 180.466L243.335 180.466L241.577 160.449H213.247Z" fill="#1F3969"/>
<path d="M325.672 162.252H129.152C125.047 162.252 121.689 158.889 121.689 154.778V26.4618C121.689 22.3507 125.047 18.9871 129.152 18.9871H325.672C329.777 18.9871 333.135 22.3507 333.135 26.4618V154.778C333.135 158.951 329.777 162.252 325.672 162.252Z" fill="white"/>
<path d="M325.672 162.252H129.152C125.047 162.252 121.689 158.889 121.689 154.778V26.4618C121.689 22.3507 125.047 18.9871 129.152 18.9871H325.672C329.777 18.9871 333.135 22.3507 333.135 26.4618V154.778C333.135 158.951 329.777 162.252 325.672 162.252Z" fill="#BFCFE2"/>
<path fill-rule="evenodd" clip-rule="evenodd" d="M129.537 20.6024C126.118 20.6024 123.315 23.3935 123.315 26.7986V154.441C123.315 157.846 126.118 160.637 129.537 160.637H326.15C329.576 160.637 332.372 157.901 332.372 154.441V26.7986C332.372 23.3935 329.569 20.6024 326.15 20.6024H129.537ZM120.826 26.7986C120.826 22.0247 124.743 18.1239 129.537 18.1239H326.15C330.944 18.1239 334.861 22.0247 334.861 26.7986V154.441C334.861 159.283 330.937 163.115 326.15 163.115H129.537C124.743 163.115 120.826 159.214 120.826 154.441V26.7986Z" fill="#1F3969"/>
<path d="M322.778 138.087V29.3435L132.046 29.3435L132.046 138.087L322.778 138.087Z" fill="#F6F9FD"/>
<path opacity="0.28" d="M138.95 18.9871V105.477C138.95 108.223 141.192 110.47 143.932 110.47H261.698C264.439 110.47 266.681 108.223 266.681 105.477V18.9871H138.95Z" fill="#1F3969"/>
<path opacity="0.28" fill-rule="evenodd" clip-rule="evenodd" d="M138.087 19.3617C138.087 18.6781 138.645 18.1239 139.334 18.1239H267.16C267.849 18.1239 268.407 18.6781 268.407 19.3617V105.143C268.407 108.55 265.605 111.333 262.174 111.333H144.32C140.889 111.333 138.087 108.55 138.087 105.143V19.3617ZM140.58 20.5996V105.143C140.58 107.183 142.266 108.857 144.32 108.857H262.174C264.228 108.857 265.914 107.183 265.914 105.143V20.5996H140.58Z" fill="#1F3969"/>
<path fill-rule="evenodd" clip-rule="evenodd" d="M323.257 28.4803C323.946 28.4803 324.504 29.0385 324.504 29.7271V138.566C324.504 139.255 323.946 139.813 323.257 139.813L132.43 139.813C131.741 139.813 131.183 139.255 131.183 138.566L131.183 29.7271C131.183 29.0385 131.741 28.4803 132.43 28.4803L323.257 28.4803ZM322.01 30.9738L133.677 30.9738L133.677 137.32L322.01 137.32V30.9738Z" fill="#1F3969"/>
<path fill-rule="evenodd" clip-rule="evenodd" d="M218.35 150.601C218.35 149.886 218.9 149.307 219.579 149.307H236.108C236.787 149.307 237.337 149.886 237.337 150.601C237.337 151.316 236.787 151.896 236.108 151.896H219.579C218.9 151.896 218.35 151.316 218.35 150.601Z" fill="#1F3969"/>
<path d="M267.74 103.565H149.974C147.233 103.565 144.991 101.332 144.991 98.6034V6.68773C144.991 3.95878 147.233 1.72601 149.974 1.72601H267.74C270.48 1.72601 272.722 3.95878 272.722 6.68773V98.6655C272.722 101.394 270.48 103.565 267.74 103.565Z" fill="#424242"/>
<path fill-rule="evenodd" clip-rule="evenodd" d="M149.498 2.49732C147.444 2.49732 145.758 4.18586 145.758 6.24329V12.1744H271.092V6.24329C271.092 4.18586 269.406 2.49732 267.353 2.49732H149.498ZM143.265 6.24329C143.265 2.80663 146.067 0 149.498 0H267.353C270.783 0 273.585 2.80663 273.585 6.24329V13.4231C273.585 14.1127 273.027 14.6717 272.338 14.6717H144.512C143.823 14.6717 143.265 14.1127 143.265 13.4231V6.24329Z" fill="#1F3969"/>
<path d="M272.722 15.5348H144.991V5.90061C144.991 3.12998 147.233 0.863098 149.974 0.863098H267.74C270.48 0.863098 272.722 3.12998 272.722 5.90061V15.5348Z" fill="#D0DDF0"/>
<path fill-rule="evenodd" clip-rule="evenodd" d="M149.498 2.52907C147.444 2.52907 145.758 4.23908 145.758 6.32267V14.7318H271.092V6.32267C271.092 4.23908 269.406 2.52907 267.353 2.52907H149.498ZM143.265 6.32267C143.265 2.84231 146.067 0 149.498 0H267.353C270.783 0 273.585 2.84231 273.585 6.32267V15.9963C273.585 16.6947 273.027 17.2609 272.338 17.2609H144.512C143.823 17.2609 143.265 16.6947 143.265 15.9963V6.32267Z" fill="#1F3969"/>
<path fill-rule="evenodd" clip-rule="evenodd" d="M149.498 2.52907C147.444 2.52907 145.758 4.23908 145.758 6.32267V14.7318H271.092V6.32267C271.092 4.23908 269.406 2.52907 267.353 2.52907H149.498ZM143.265 6.32267C143.265 2.84231 146.067 0 149.498 0H267.353C270.783 0 273.585 2.84231 273.585 6.32267V15.9963C273.585 16.6947 273.027 17.2609 272.338 17.2609H144.512C143.823 17.2609 143.265 16.6947 143.265 15.9963V6.32267Z" fill="#1F3969"/>
<path fill-rule="evenodd" clip-rule="evenodd" d="M149.498 2.48343C147.444 2.48343 145.758 4.16258 145.758 6.20858V98.2197C145.758 100.266 147.444 101.945 149.498 101.945H267.353C269.427 101.945 271.092 100.307 271.092 98.2818V6.20858C271.092 4.16258 269.406 2.48343 267.353 2.48343H149.498ZM143.265 6.20858C143.265 2.79102 146.067 0 149.498 0H267.353C270.783 0 273.585 2.79102 273.585 6.20858V98.2818C273.585 101.72 270.763 104.428 267.353 104.428H149.498C146.067 104.428 143.265 101.637 143.265 98.2197V6.20858Z" fill="#1F3969"/>
<path opacity="0.28" d="M329.029 125.141H256.978C254.245 125.141 252.009 122.905 252.009 120.171V43.8078C252.009 41.0739 254.245 38.837 256.978 38.837H329.029C331.762 38.837 333.998 41.0739 333.998 43.8078V120.171C333.998 122.967 331.762 125.141 329.029 125.141Z" fill="#1F3969"/>
<path opacity="0.28" fill-rule="evenodd" clip-rule="evenodd" d="M256.502 40.4624C254.452 40.4624 252.77 42.1448 252.77 44.1948V120.647C252.77 122.697 254.452 124.379 256.502 124.379H328.642C330.702 124.379 332.373 122.749 332.373 120.647V44.1948C332.373 42.1448 330.691 40.4624 328.642 40.4624H256.502ZM250.283 44.1948C250.283 40.7706 253.078 37.9741 256.502 37.9741H328.642C332.065 37.9741 334.861 40.7706 334.861 44.1948V120.647C334.861 124.143 332.055 126.868 328.642 126.868H256.502C253.078 126.868 250.283 124.071 250.283 120.647V44.1948Z" fill="#1F3969"/>
<path d="M334.155 120.826H261.345C258.584 120.826 256.324 118.589 256.324 115.855V39.4926C256.324 36.7587 258.584 34.5219 261.345 34.5219H334.155C336.917 34.5219 339.176 36.7587 339.176 39.4926V115.855C339.176 118.651 336.917 120.826 334.155 120.826Z" fill="#5E666C"/>
<path fill-rule="evenodd" clip-rule="evenodd" d="M261.68 36.1471C259.631 36.1471 257.949 37.8295 257.949 39.8795V116.332C257.949 118.382 259.631 120.064 261.68 120.064H333.82C335.88 120.064 337.552 118.434 337.552 116.332V39.8795C337.552 37.8295 335.87 36.1471 333.82 36.1471H261.68ZM255.461 39.8795C255.461 36.4553 258.257 33.6588 261.68 33.6588H333.82C337.244 33.6588 340.039 36.4553 340.039 39.8795V116.332C340.039 119.828 337.234 122.552 333.82 122.552H261.68C258.257 122.552 255.461 119.756 255.461 116.332V39.8795Z" fill="#1F3969"/>
<path opacity="0.34" fill-rule="evenodd" clip-rule="evenodd" d="M272.278 47.8008C270.812 47.8008 269.655 48.9087 269.655 50.313V54.9786C269.655 56.3829 270.812 57.4908 272.278 57.4908H323.223C324.689 57.4908 325.845 56.3829 325.845 54.9786V50.313C325.845 48.9087 324.689 47.8008 323.223 47.8008H272.278ZM268.407 50.313C268.407 48.248 270.122 46.6045 272.278 46.6045H323.223C325.378 46.6045 327.094 48.2481 327.094 50.313V54.9786C327.094 57.0435 325.378 58.6871 323.223 58.6871H272.278C270.122 58.6871 268.407 57.0436 268.407 54.9786V50.313Z" fill="white"/>
<g opacity="0.34">
<path fill-rule="evenodd" clip-rule="evenodd" d="M272.282 66.0102C270.814 66.0102 269.657 67.1973 269.657 68.7019V73.7007C269.657 75.2053 270.814 76.3924 272.282 76.3924H300.78C302.17 76.3924 303.348 75.218 303.405 73.6891V68.7019C303.405 67.1973 302.247 66.0102 300.78 66.0102H272.282ZM268.407 68.7019C268.407 66.4894 270.124 64.7285 272.282 64.7285H300.78C302.937 64.7285 304.655 66.4894 304.655 68.7019V73.7007C304.655 73.7081 304.654 73.7154 304.654 73.7228C304.581 75.9058 302.886 77.6741 300.78 77.6741H272.282C270.124 77.6741 268.407 75.9132 268.407 73.7007V68.7019Z" fill="white"/>
<path fill-rule="evenodd" clip-rule="evenodd" d="M312.018 66.0101C310.537 66.0101 309.368 67.1972 309.368 68.7017V73.7006C309.368 75.2052 310.537 76.3922 312.018 76.3922H323.183C324.664 76.3922 325.832 75.2052 325.832 73.7006V68.7017C325.832 67.1972 324.664 66.0101 323.183 66.0101H312.018ZM308.107 68.7017C308.107 66.4893 309.84 64.7283 312.018 64.7283H323.183C325.36 64.7283 327.094 66.4893 327.094 68.7017V73.7006C327.094 75.9131 325.36 77.674 323.183 77.674H312.018C309.84 77.674 308.107 75.9131 308.107 73.7006V68.7017Z" fill="white"/>
</g>
<path fill-rule="evenodd" clip-rule="evenodd" d="M268.407 95.3666C268.407 95.1283 268.687 94.9351 269.032 94.9351H326.469C326.814 94.9351 327.094 95.1283 327.094 95.3666C327.094 95.6049 326.814 95.7981 326.469 95.7981H269.032C268.687 95.7981 268.407 95.6049 268.407 95.3666Z" fill="white"/>
<path fill-rule="evenodd" clip-rule="evenodd" d="M268.407 102.271C268.407 102.033 268.687 101.839 269.032 101.839H326.469C326.814 101.839 327.094 102.033 327.094 102.271C327.094 102.509 326.814 102.702 326.469 102.702H269.032C268.687 102.702 268.407 102.509 268.407 102.271Z" fill="white"/>
<path fill-rule="evenodd" clip-rule="evenodd" d="M268.407 109.175C268.407 108.937 268.687 108.744 269.032 108.744H304.03C304.375 108.744 304.655 108.937 304.655 109.175C304.655 109.413 304.375 109.607 304.03 109.607H269.032C268.687 109.607 268.407 109.413 268.407 109.175Z" fill="white"/>
<path d="M157.074 11.2196C158.504 11.2196 159.663 10.0604 159.663 8.63045C159.663 7.20051 158.504 6.04132 157.074 6.04132C155.644 6.04132 154.485 7.20051 154.485 8.63045C154.485 10.0604 155.644 11.2196 157.074 11.2196Z" fill="#1F3969"/>
<path d="M165.705 11.2196C167.135 11.2196 168.294 10.0604 168.294 8.63045C168.294 7.20051 167.135 6.04132 165.705 6.04132C164.275 6.04132 163.115 7.20051 163.115 8.63045C163.115 10.0604 164.275 11.2196 165.705 11.2196Z" fill="#1F3969"/>
<path d="M174.335 11.2196C175.765 11.2196 176.924 10.0604 176.924 8.63045C176.924 7.20051 175.765 6.04132 174.335 6.04132C172.905 6.04132 171.746 7.20051 171.746 8.63045C171.746 10.0604 172.905 11.2196 174.335 11.2196Z" fill="#1F3969"/>
<path fill-rule="evenodd" clip-rule="evenodd" d="M216.624 27.1857C216.624 26.4708 217.215 25.8912 217.944 25.8912H226.524C227.253 25.8912 227.844 26.4708 227.844 27.1857C227.844 27.9007 227.253 28.4803 226.524 28.4803H217.944C217.215 28.4803 216.624 27.9007 216.624 27.1857Z" fill="white"/>
<path fill-rule="evenodd" clip-rule="evenodd" d="M176.061 27.1857C176.061 26.4708 176.612 25.8912 177.292 25.8912H211.941C212.621 25.8912 213.172 26.4708 213.172 27.1857C213.172 27.9007 212.621 28.4803 211.941 28.4803H177.292C176.612 28.4803 176.061 27.9007 176.061 27.1857Z" fill="#7BFFA0"/>
<path fill-rule="evenodd" clip-rule="evenodd" d="M158.801 27.1858C158.801 26.4708 159.353 25.8912 160.033 25.8912H172.239C172.92 25.8912 173.472 26.4708 173.472 27.1858C173.472 27.9008 172.92 28.4804 172.239 28.4804H160.033C159.353 28.4804 158.801 27.9008 158.801 27.1858Z" fill="#9169FF"/>
<path fill-rule="evenodd" clip-rule="evenodd" d="M174.335 88.462C174.335 87.7471 174.894 87.1675 175.584 87.1675H202.43C203.12 87.1675 203.679 87.7471 203.679 88.462C203.679 89.177 203.12 89.7566 202.43 89.7566H175.584C174.894 89.7566 174.335 89.177 174.335 88.462Z" fill="#9169FF"/>
<path fill-rule="evenodd" clip-rule="evenodd" d="M158.801 88.462C158.801 87.7471 159.362 87.1675 160.054 87.1675H168.767C169.459 87.1675 170.02 87.7471 170.02 88.462C170.02 89.177 169.459 89.7566 168.767 89.7566H160.054C159.362 89.7566 158.801 89.177 158.801 88.462Z" fill="#7BFFA0"/>
<path fill-rule="evenodd" clip-rule="evenodd" d="M210.583 34.9534C210.583 34.2384 211.158 33.6588 211.867 33.6588H217.066C217.775 33.6588 218.35 34.2384 218.35 34.9534C218.35 35.6683 217.775 36.2479 217.066 36.2479H211.867C211.158 36.2479 210.583 35.6683 210.583 34.9534Z" fill="white"/>
<path fill-rule="evenodd" clip-rule="evenodd" d="M188.144 34.9534C188.144 34.2384 188.688 33.6588 189.361 33.6588H205.913C206.586 33.6588 207.131 34.2384 207.131 34.9534C207.131 35.6683 206.586 36.2479 205.913 36.2479H189.361C188.688 36.2479 188.144 35.6683 188.144 34.9534Z" fill="#9169FF"/>
<path fill-rule="evenodd" clip-rule="evenodd" d="M164.841 34.9533C164.841 34.2383 165.402 33.6588 166.094 33.6588H183.439C184.131 33.6588 184.691 34.2383 184.691 34.9533C184.691 35.6683 184.131 36.2479 183.439 36.2479H166.094C165.402 36.2479 164.841 35.6683 164.841 34.9533Z" fill="#FFC47D"/>
<path fill-rule="evenodd" clip-rule="evenodd" d="M191.596 42.7207C191.596 42.0057 192.15 41.4261 192.833 41.4261H207.619C208.303 41.4261 208.857 42.0057 208.857 42.7207C208.857 43.4357 208.303 44.0153 207.619 44.0153H192.833C192.15 44.0153 191.596 43.4357 191.596 42.7207Z" fill="white"/>
<path fill-rule="evenodd" clip-rule="evenodd" d="M172.609 42.7207C172.609 42.0057 173.163 41.4261 173.846 41.4261H187.769C188.453 41.4261 189.007 42.0057 189.007 42.7207C189.007 43.4356 188.453 44.0152 187.769 44.0152H173.846C173.163 44.0152 172.609 43.4356 172.609 42.7207Z" fill="#FF5757"/>
<path fill-rule="evenodd" clip-rule="evenodd" d="M193.322 50.488C193.322 49.7731 193.93 49.1935 194.679 49.1935H198.005C198.755 49.1935 199.363 49.7731 199.363 50.488C199.363 51.203 198.755 51.7826 198.005 51.7826H194.679C193.93 51.7826 193.322 51.203 193.322 50.488Z" fill="white"/>
<path fill-rule="evenodd" clip-rule="evenodd" d="M181.239 50.488C181.239 49.7731 181.802 49.1935 182.496 49.1935H189.475C190.17 49.1935 190.732 49.7731 190.732 50.488C190.732 51.203 190.17 51.7826 189.475 51.7826H182.496C181.802 51.7826 181.239 51.203 181.239 50.488Z" fill="#9169FF"/>
<path fill-rule="evenodd" clip-rule="evenodd" d="M164.841 50.488C164.841 49.773 165.406 49.1934 166.102 49.1934H177.389C178.085 49.1934 178.65 49.773 178.65 50.488C178.65 51.203 178.085 51.7826 177.389 51.7826H166.102C165.406 51.7826 164.841 51.203 164.841 50.488Z" fill="#7BFFA0"/>
<path fill-rule="evenodd" clip-rule="evenodd" d="M189.007 58.2554C189.007 57.5405 189.545 56.9609 190.209 56.9609H209.381C210.045 56.9609 210.583 57.5405 210.583 58.2554C210.583 58.9704 210.045 59.55 209.381 59.55H190.209C189.545 59.55 189.007 58.9704 189.007 58.2554Z" fill="#FFC47D"/>
<path fill-rule="evenodd" clip-rule="evenodd" d="M164.841 58.2555C164.841 57.5405 165.387 56.9609 166.059 56.9609H183.474C184.146 56.9609 184.691 57.5405 184.691 58.2555C184.691 58.9705 184.146 59.5501 183.474 59.5501H166.059C165.387 59.5501 164.841 58.9705 164.841 58.2555Z" fill="#FF5757"/>
<path fill-rule="evenodd" clip-rule="evenodd" d="M211.446 65.5913C211.446 65.1146 212.026 64.7282 212.742 64.7282H223.958C224.674 64.7282 225.254 65.1146 225.254 65.5913C225.254 66.0679 224.674 66.4543 223.958 66.4543H212.742C212.026 66.4543 211.446 66.0679 211.446 65.5913Z" fill="#9169FF"/>
<path fill-rule="evenodd" clip-rule="evenodd" d="M189.007 65.5913C189.007 65.1146 189.543 64.7282 190.205 64.7282H206.796C207.457 64.7282 207.994 65.1146 207.994 65.5913C207.994 66.0679 207.457 66.4543 206.796 66.4543H190.205C189.543 66.4543 189.007 66.0679 189.007 65.5913Z" fill="#FF5757"/>
<path fill-rule="evenodd" clip-rule="evenodd" d="M172.609 65.5913C172.609 65.1147 173.158 64.7283 173.836 64.7283H183.465C184.142 64.7283 184.691 65.1147 184.691 65.5913C184.691 66.068 184.142 66.4544 183.465 66.4544H173.836C173.158 66.4544 172.609 66.068 172.609 65.5913Z" fill="#7BFFA0"/>
<path fill-rule="evenodd" clip-rule="evenodd" d="M196.774 72.9273C196.774 72.2123 197.3 71.6327 197.949 71.6327H206.819C207.468 71.6327 207.993 72.2123 207.993 72.9273C207.993 73.6422 207.468 74.2218 206.819 74.2218H197.949C197.3 74.2218 196.774 73.6422 196.774 72.9273Z" fill="white"/>
<path fill-rule="evenodd" clip-rule="evenodd" d="M172.609 72.9272C172.609 72.2122 173.17 71.6326 173.861 71.6326H191.207C191.898 71.6326 192.459 72.2122 192.459 72.9272C192.459 73.6422 191.898 74.2218 191.207 74.2218H173.861C173.17 74.2218 172.609 73.6422 172.609 72.9272Z" fill="#9169FF"/>
<path fill-rule="evenodd" clip-rule="evenodd" d="M220.939 80.6946C220.939 79.9796 221.483 79.4 222.155 79.4H232.669C233.341 79.4 233.885 79.9796 233.885 80.6946C233.885 81.4096 233.341 81.9892 232.669 81.9892H222.155C221.483 81.9892 220.939 81.4096 220.939 80.6946Z" fill="white"/>
<path fill-rule="evenodd" clip-rule="evenodd" d="M188.144 80.6946C188.144 79.9796 188.697 79.4 189.379 79.4H216.252C216.934 79.4 217.487 79.9796 217.487 80.6946C217.487 81.4096 216.934 81.9892 216.252 81.9892H189.379C188.697 81.9892 188.144 81.4096 188.144 80.6946Z" fill="#FFC47D"/>
<path fill-rule="evenodd" clip-rule="evenodd" d="M164.841 80.6945C164.841 79.9796 165.402 79.4 166.094 79.4H183.439C184.131 79.4 184.691 79.9796 184.691 80.6945C184.691 81.4095 184.131 81.9891 183.439 81.9891H166.094C165.402 81.9891 164.841 81.4095 164.841 80.6945Z" fill="white"/>
<path fill-rule="evenodd" clip-rule="evenodd" d="M32.7959 179.945C32.7959 179.23 33.3522 178.65 34.0384 178.65H167.914C168.6 178.65 169.157 179.23 169.157 179.945C169.157 180.66 168.6 181.239 167.914 181.239H34.0384C33.3522 181.239 32.7959 180.66 32.7959 179.945Z" fill="#1F3969"/>
<path fill-rule="evenodd" clip-rule="evenodd" d="M32.7959 185.123C32.7959 184.408 33.3522 183.828 34.0384 183.828H167.914C168.6 183.828 169.157 184.408 169.157 185.123C169.157 185.838 168.6 186.417 167.914 186.417H34.0384C33.3522 186.417 32.7959 185.838 32.7959 185.123Z" fill="#1F3969"/>
<path fill-rule="evenodd" clip-rule="evenodd" d="M31.2823 174.875C31.5143 174.537 31.9025 174.335 32.3179 174.335H169.634C170.05 174.335 170.438 174.537 170.67 174.875C170.902 175.213 170.947 175.642 170.791 176.019C170.052 177.802 169.633 180.03 169.572 182.548C169.574 184.988 169.991 187.269 170.728 189.048C170.885 189.426 170.839 189.854 170.607 190.192C170.375 190.53 169.987 190.733 169.572 190.733H32.3179C31.9048 190.733 31.5185 190.532 31.2861 190.198C31.0536 189.863 31.0051 189.437 31.1565 189.06C31.9027 187.203 32.3179 184.972 32.3179 182.534C32.3179 180.088 31.9004 177.802 31.1614 176.019C31.005 175.642 31.0504 175.213 31.2823 174.875ZM34.0572 176.782C34.558 178.542 34.8146 180.514 34.8146 182.534C34.8146 184.57 34.5539 186.516 34.0498 188.285H167.833C167.332 186.526 167.075 184.553 167.075 182.534C167.075 182.524 167.075 182.515 167.076 182.505C167.124 180.457 167.391 178.52 167.892 176.782H34.0572Z" fill="#1F3969"/>
<path d="M353.601 124.762L347.544 125.473L352.812 170.348L358.87 169.637L353.601 124.762Z" fill="#FFA364"/>
<path d="M353.61 124.81L347.552 125.521L348.089 130.095L354.147 129.384L353.61 124.81Z" fill="#2AA1FF"/>
<path fill-rule="evenodd" clip-rule="evenodd" d="M346.316 125.666C346.235 124.983 346.724 124.365 347.407 124.285L353.464 123.573C354.147 123.493 354.765 123.982 354.845 124.665L355.382 129.239C355.463 129.921 354.974 130.54 354.291 130.62L348.234 131.331C347.551 131.411 346.933 130.923 346.853 130.24L346.316 125.666ZM348.933 126.612L349.18 128.713L352.765 128.293L352.518 126.191L348.933 126.612Z" fill="#1F3969"/>
<path fill-rule="evenodd" clip-rule="evenodd" d="M346.307 125.618C346.227 124.936 346.716 124.317 347.399 124.237L353.456 123.526C354.139 123.446 354.757 123.934 354.837 124.617L360.106 169.492C360.186 170.175 359.697 170.793 359.015 170.873L352.957 171.584C352.274 171.665 351.656 171.176 351.576 170.493L346.307 125.618ZM348.925 126.564L353.903 168.967L357.488 168.546L352.51 126.144L348.925 126.564Z" fill="#1F3969"/>
<path d="M370.212 133.954L364.149 133.294L359.265 178.21L365.328 178.869L370.212 133.954Z" fill="#FF5252"/>
<path fill-rule="evenodd" clip-rule="evenodd" d="M362.912 133.16C362.986 132.476 363.6 131.983 364.284 132.057L370.347 132.716C371.03 132.791 371.524 133.405 371.449 134.088L366.565 179.004C366.491 179.687 365.877 180.181 365.193 180.107L359.13 179.447C358.447 179.373 357.953 178.759 358.028 178.075L362.912 133.16ZM365.252 134.666L360.637 177.107L364.225 177.497L368.84 135.056L365.252 134.666Z" fill="#1F3969"/>
<path d="M370.257 133.964L364.194 133.305L363.696 137.883L369.759 138.543L370.257 133.964Z" fill="#2D425E"/>
<path fill-rule="evenodd" clip-rule="evenodd" d="M362.957 133.17C363.031 132.487 363.646 131.993 364.329 132.068L370.392 132.727C371.075 132.801 371.569 133.416 371.495 134.099L370.997 138.677C370.923 139.36 370.308 139.854 369.625 139.78L363.562 139.121C362.879 139.046 362.385 138.432 362.459 137.749L362.957 133.17ZM365.297 134.677L365.068 136.78L368.657 137.171L368.885 135.067L365.297 134.677Z" fill="#1F3969"/>
<path d="M373.984 193.322H349.246L345.217 156.211H378.013L373.984 193.322Z" fill="#0D4245"/>
<path d="M345.217 156.211L345.28 156.889H370.27L366.305 193.322H373.984L378.013 156.211H345.217Z" fill="#1A676C"/>
<path fill-rule="evenodd" clip-rule="evenodd" d="M344.67 154.904C344.903 154.637 345.236 154.485 345.585 154.485H377.645C377.994 154.485 378.327 154.637 378.56 154.904C378.794 155.17 378.906 155.526 378.869 155.882L374.931 193.918C374.864 194.561 374.336 195.048 373.707 195.048H349.523C348.894 195.048 348.366 194.561 348.299 193.918L344.361 155.882C344.324 155.526 344.436 155.17 344.67 154.904ZM346.953 157.012L350.63 192.521H372.6L376.277 157.012H346.953Z" fill="#1F3969"/>
</svg>
